<?xml version="1.0" standalone="no"?>
<!DOCTYPE svg PUBLIC "-//W3C//DTD SVG 20010904//EN"
 "http://www.w3.org/TR/2001/REC-SVG-20010904/DTD/svg10.dtd">
<svg version="1.0" xmlns="http://www.w3.org/2000/svg"
 width="300.000000pt" height="300.000000pt" viewBox="0 0 300.000000 300.000000"
 preserveAspectRatio="xMidYMid meet">
<metadata>
Created by potrace 1.14, written by Peter Selinger 2001-2017
</metadata>
<g transform="translate(0.000000,300.000000) scale(0.100000,-0.100000)"
fill="#000000" stroke="none">
<path d="M1290 2983 c-280 -39 -570 -171 -774 -353 -280 -249 -449 -563 -503
-935 -4 -27 -7 -124 -7 -215 1 -128 6 -188 23 -268 65 -309 196 -554 412 -772
78 -78 224 -195 259 -208 8 -3 28 -14 44 -25 39 -27 172 -91 221 -107 22 -7
45 -15 50 -19 6 -3 15 -6 20 -8 6 -1 44 -11 85 -22 275 -74 592 -62 865 31
421 144 760 474 918 893 35 93 63 194 73 270 3 22 9 63 13 92 8 56 6 314 -3
352 -3 12 -8 42 -10 66 -7 55 -38 172 -70 261 -85 235 -243 461 -437 626 -195
166 -470 295 -709 333 -19 3 -46 8 -60 11 -53 11 -319 10 -410 -3z"/>
</g>
</svg>
