<?xml version="1.0" encoding="UTF-8" standalone="no"?>
<!-- Created with Inkscape (http://www.inkscape.org/) -->

<svg
   xmlns:dc="http://purl.org/dc/elements/1.1/"
   xmlns:cc="http://creativecommons.org/ns#"
   xmlns:rdf="http://www.w3.org/1999/02/22-rdf-syntax-ns#"
   xmlns:svg="http://www.w3.org/2000/svg"
   xmlns="http://www.w3.org/2000/svg"
   xmlns:sodipodi="http://sodipodi.sourceforge.net/DTD/sodipodi-0.dtd"
   xmlns:inkscape="http://www.inkscape.org/namespaces/inkscape"
   version="1.1"
   id="svg10"
   width="52"
   height="64"
   viewBox="0 0 52 64"
   sodipodi:docname="delete.svg"
   inkscape:version="0.92.4 (5da689c313, 2019-01-14)">
  <metadata
     id="metadata16">
    <rdf:RDF>
      <cc:Work
         rdf:about="">
        <dc:format>image/svg+xml</dc:format>
        <dc:type
           rdf:resource="http://purl.org/dc/dcmitype/StillImage" />
        <dc:title></dc:title>
      </cc:Work>
    </rdf:RDF>
  </metadata>
  <defs
     id="defs14" />
  <sodipodi:namedview
     pagecolor="#ffffff"
     bordercolor="#666666"
     borderopacity="1"
     objecttolerance="10"
     gridtolerance="10"
     guidetolerance="10"
     inkscape:pageopacity="0"
     inkscape:pageshadow="2"
     inkscape:window-width="1920"
     inkscape:window-height="1001"
     id="namedview12"
     showgrid="false"
     fit-margin-top="0"
     fit-margin-left="0"
     fit-margin-right="0"
     fit-margin-bottom="0"
     inkscape:zoom="8.9272231"
     inkscape:cx="28.239025"
     inkscape:cy="27.048809"
     inkscape:window-x="-9"
     inkscape:window-y="-9"
     inkscape:window-maximized="1"
     inkscape:current-layer="svg10" />
  <path
     style="fill:#000000"
     d="m 6.1099024,61.887983 c -1.888889,-1.888889 -2,-3.333333 -2,-26 0,-23.333333 -0.055556,-24 -2,-24 -1.33333296,0 -1.99999996,-0.666667 -1.99999996,-1.9999999 0,-1.8333333 0.666667,-2 7.99999996,-2 h 7.9999996 v -2.8 c 0,-4.34840327 1.637686,-5.20000002 10,-5.20000002 8.362314,0 10,0.85159675 10,5.20000002 v 2.8 h 8 c 7.333333,0 8,0.1666667 8,2 0,1.3333329 -0.666667,1.9999999 -2,1.9999999 -1.944444,0 -2,0.666667 -2,24 0,22.666667 -0.111111,24.111111 -2,26 -1.851852,1.851852 -3.333333,2 -20,2 -16.6666666,0 -18.1481476,-0.148148 -19.9999996,-2 z m 37.7680986,-26.25 0.268098,-23.75 H 26.128001 8.1099024 v 23.333333 c 0,12.833334 0.31026,23.643594 0.689467,24.022801 0.379207,0.379207 8.3667066,0.566707 17.7499996,0.416667 l 17.060533,-0.272801 z m -27.768099,0.25 c 0,-15.333333 0.08333,-16 2,-16 1.916667,0 2,0.666667 2,16 0,15.333333 -0.08333,16 -2,16 -1.916667,0 -2,-0.666667 -2,-16 z m 8,0 c 0,-15.333333 0.08333,-16 2,-16 1.916667,0 2,0.666667 2,16 0,15.333333 -0.08333,16 -2,16 -1.916667,0 -2,-0.666667 -2,-16 z m 8,0 c 0,-15.333333 0.08333,-16 2,-16 1.916667,0 2,0.666667 2,16 0,15.333333 -0.08333,16 -2,16 -1.916667,0 -2,-0.666667 -2,-16 z m 0,-29.9999999 c 0,-1.7777778 -0.666667,-2 -6,-2 -5.333333,0 -6,0.2222222 -6,2 0,1.7777778 0.666667,2 6,2 5.333333,0 6,-0.2222222 6,-2 z"
     id="path20"
     inkscape:connector-curvature="0" />
</svg>
