<?xml version="1.0" standalone="no"?>
<!DOCTYPE svg PUBLIC "-//W3C//DTD SVG 20010904//EN"
 "http://www.w3.org/TR/2001/REC-SVG-20010904/DTD/svg10.dtd">
<svg version="1.0" xmlns="http://www.w3.org/2000/svg"
 width="113.000000pt" height="113.000000pt" viewBox="0 0 113.000000 113.000000"
 preserveAspectRatio="xMidYMid meet">
<metadata>
Created by potrace 1.16, written by Peter Selinger 2001-2019
</metadata>
<g transform="translate(0.000000,113.000000) scale(0.100000,-0.100000)"
fill="#000000" stroke="none">
<path d="M472 1037 c-51 -52 -92 -102 -92 -111 0 -20 35 -56 54 -56 8 0 29 12
46 26 17 15 33 24 36 21 3 -3 2 -71 -2 -151 l-7 -146 -149 0 -149 0 20 26 c25
32 27 57 5 78 -31 31 -57 19 -147 -72 l-87 -87 87 -87 c99 -97 122 -109 152
-79 27 27 26 43 -5 81 -15 17 -24 33 -21 36 3 3 71 2 151 -2 l146 -7 0 -149 0
-149 -26 20 c-33 26 -56 27 -77 3 -30 -33 -19 -55 71 -145 l88 -87 92 93 c51
52 92 102 92 111 0 20 -35 56 -54 56 -8 0 -29 -12 -46 -26 -17 -15 -33 -24
-36 -21 -3 3 -2 71 2 151 l7 146 149 0 149 0 -20 -26 c-26 -33 -27 -56 -3 -77
33 -30 55 -19 145 71 l87 88 -93 92 c-52 51 -102 92 -111 92 -20 0 -56 -35
-56 -54 0 -8 12 -29 26 -46 15 -17 24 -33 21 -36 -3 -3 -71 -2 -151 2 l-146 7
0 149 0 149 26 -20 c32 -25 57 -27 78 -5 31 31 19 57 -72 147 l-88 87 -92 -93z"/>
</g>
</svg>
