<?xml version="1.0" encoding="UTF-8" standalone="no"?>
<svg
   xmlns:dc="http://purl.org/dc/elements/1.1/"
   xmlns:cc="http://creativecommons.org/ns#"
   xmlns:rdf="http://www.w3.org/1999/02/22-rdf-syntax-ns#"
   xmlns:svg="http://www.w3.org/2000/svg"
   xmlns="http://www.w3.org/2000/svg"
   xmlns:sodipodi="http://sodipodi.sourceforge.net/DTD/sodipodi-0.dtd"
   xmlns:inkscape="http://www.inkscape.org/namespaces/inkscape"
   version="1.0"
   width="786.0246pt"
   height="783.8382pt"
   viewBox="0 0 786.0246 783.8382"
   preserveAspectRatio="xMidYMid meet"
   id="svg3735"
   sodipodi:docname="select.svg"
   inkscape:version="0.92.4 (5da689c313, 2019-01-14)">
  <defs
     id="defs3739" />
  <sodipodi:namedview
     pagecolor="#ffffff"
     bordercolor="#666666"
     borderopacity="1"
     objecttolerance="10"
     gridtolerance="10"
     guidetolerance="10"
     inkscape:pageopacity="0"
     inkscape:pageshadow="2"
     inkscape:window-width="1920"
     inkscape:window-height="1001"
     id="namedview3737"
     showgrid="false"
     fit-margin-top="0"
     fit-margin-left="0"
     fit-margin-right="0"
     fit-margin-bottom="0"
     inkscape:zoom="0.505"
     inkscape:cx="260.91089"
     inkscape:cy="494.45094"
     inkscape:window-x="-9"
     inkscape:window-y="-9"
     inkscape:window-maximized="1"
     inkscape:current-layer="svg3735" />
  <metadata
     id="metadata3727">
Created by potrace 1.16, written by Peter Selinger 2001-2019
<rdf:RDF>
  <cc:Work
     rdf:about="">
    <dc:format>image/svg+xml</dc:format>
    <dc:type
       rdf:resource="http://purl.org/dc/dcmitype/StillImage" />
    <dc:title></dc:title>
  </cc:Work>
</rdf:RDF>
</metadata>
  <g
     transform="matrix(0.1,0,0,-0.1,-186,1013)"
     id="g3733"
     style="fill:#000000;stroke:none">
    <path
       d="m 2015,10106 c -60,-28 -127,-99 -143,-154 -9,-29 -12,-434 -12,-1604 V 6784 l 26,-52 c 29,-58 69,-96 134,-126 45,-21 51,-21 1259,-24 977,-2 1212,0 1209,10 -3,7 -44,131 -92,276 l -88,262 h -954 -954 v 1225 1225 h 1230 1230 v -919 -918 l 258,-88 c 141,-48 263,-90 270,-92 17,-7 18,2330 0,2389 -16,55 -83,126 -143,154 l -50,24 H 3630 2065 Z"
       id="path3729"
       inkscape:connector-curvature="0" />
    <path
       d="m 4778,7447 c -50,-14 -63,-22 -116,-71 -49,-45 -74,-101 -79,-176 -5,-64 8,-102 755,-2356 418,-1261 767,-2305 775,-2321 21,-39 90,-101 136,-121 21,-9 65,-16 106,-16 82,0 147,29 205,89 19,20 201,199 403,398 l 368,361 452,-451 c 249,-248 468,-459 487,-468 52,-27 147,-31 211,-10 51,16 86,50 622,584 643,641 623,616 615,750 -4,61 -10,88 -31,122 -14,24 -224,242 -466,484 l -441,440 409,410 c 404,405 410,411 426,469 40,137 -16,267 -139,325 -97,46 -4549,1561 -4603,1566 -26,3 -69,-1 -95,-8 z M 7055,6140 c 968,-330 1767,-603 1774,-606 10,-3 -99,-119 -326,-347 -232,-232 -348,-356 -364,-387 -28,-56 -30,-164 -4,-225 12,-29 146,-169 471,-495 l 454,-455 -335,-335 -335,-335 -447,447 c -300,299 -463,454 -493,469 -66,34 -177,34 -242,-1 -30,-16 -172,-148 -391,-362 l -343,-336 -369,1111 c -508,1535 -813,2457 -811,2457 1,0 793,-270 1761,-600 z"
       id="path3731"
       inkscape:connector-curvature="0" />
  </g>
</svg>
