<?xml version="1.0" encoding="UTF-8" standalone="no"?>
<svg
   xmlns:dc="http://purl.org/dc/elements/1.1/"
   xmlns:cc="http://creativecommons.org/ns#"
   xmlns:rdf="http://www.w3.org/1999/02/22-rdf-syntax-ns#"
   xmlns:svg="http://www.w3.org/2000/svg"
   xmlns="http://www.w3.org/2000/svg"
   xmlns:sodipodi="http://sodipodi.sourceforge.net/DTD/sodipodi-0.dtd"
   xmlns:inkscape="http://www.inkscape.org/namespaces/inkscape"
   version="1.0"
   width="33.033398pt"
   height="47.999996pt"
   viewBox="0 0 33.033398 47.999996"
   preserveAspectRatio="xMidYMid meet"
   id="svg8"
   sodipodi:docname="mouse.svg"
   inkscape:version="0.92.4 (5da689c313, 2019-01-14)">
  <defs
     id="defs12" />
  <sodipodi:namedview
     pagecolor="#ffffff"
     bordercolor="#666666"
     borderopacity="1"
     objecttolerance="10"
     gridtolerance="10"
     guidetolerance="10"
     inkscape:pageopacity="0"
     inkscape:pageshadow="2"
     inkscape:window-width="1920"
     inkscape:window-height="1001"
     id="namedview10"
     showgrid="false"
     fit-margin-top="0"
     fit-margin-left="0"
     fit-margin-right="0"
     fit-margin-bottom="0"
     inkscape:zoom="0.78666667"
     inkscape:cx="103.33333"
     inkscape:cy="150"
     inkscape:window-x="-9"
     inkscape:window-y="-9"
     inkscape:window-maximized="1"
     inkscape:current-layer="svg8" />
  <metadata
     id="metadata2">
Created by potrace 1.15, written by Peter Selinger 2001-2017
<rdf:RDF>
  <cc:Work
     rdf:about="">
    <dc:format>image/svg+xml</dc:format>
    <dc:type
       rdf:resource="http://purl.org/dc/dcmitype/StillImage" />
    <dc:title></dc:title>
  </cc:Work>
</rdf:RDF>
</metadata>
  <g
     transform="matrix(0.02131187,0,0,-0.02131187,-7.4591545,47.999995)"
     id="g6"
     style="fill:#000000;stroke:none">
    <path
       d="m 646,2228 c -23,-21 -29,-48 -70,-283 -25,-143 -53,-298 -61,-345 -67,-371 -165,-940 -165,-962 0,-16 9,-37 20,-48 40,-40 68,-29 271,115 106,74 194,135 198,135 3,0 73,-183 155,-406 C 1146,23 1157,0 1205,0 c 37,0 420,132 443,153 12,11 22,30 22,43 0,12 -66,199 -146,415 -80,217 -146,399 -147,404 -1,6 85,12 233,15 274,6 290,10 290,80 0,38 -5,43 -447,456 -247,230 -477,446 -513,479 -244,230 -242,229 -294,183 z m 579,-653 417,-390 -199,-8 c -211,-9 -235,-15 -247,-61 -4,-18 37,-141 149,-442 84,-230 152,-420 151,-422 -7,-6 -238,-83 -241,-80 -1,2 -72,190 -156,418 -85,228 -162,423 -171,432 -36,36 -67,23 -234,-96 -87,-63 -160,-113 -162,-111 -2,2 183,1069 205,1175 l 5,29 33,-27 c 18,-15 220,-202 450,-417 z"
       id="path4"
       inkscape:connector-curvature="0" />
  </g>
</svg>
