<?xml version="1.0" standalone="no"?>
<!DOCTYPE svg PUBLIC "-//W3C//DTD SVG 20010904//EN"
 "http://www.w3.org/TR/2001/REC-SVG-20010904/DTD/svg10.dtd">
<svg version="1.0" xmlns="http://www.w3.org/2000/svg"
 width="64.000000pt" height="64.000000pt" viewBox="0 0 64.000000 64.000000"
 preserveAspectRatio="xMidYMid meet">
<metadata>
Created by potrace 1.15, written by Peter Selinger 2001-2017
</metadata>
<g transform="translate(0.000000,64.000000) scale(0.100000,-0.100000)"
fill="#000000" stroke="none">
<path d="M12 548 c-9 -9 -12 -76 -12 -240 l0 -228 253 0 253 0 69 140 c81 163
81 173 -4 178 l-51 3 0 48 c0 26 -5 52 -12 59 -8 8 -54 12 -142 12 -114 0
-135 3 -161 20 -23 15 -47 20 -105 20 -46 0 -81 -5 -88 -12z m183 -48 c26 -17
47 -20 158 -20 l127 0 0 -40 0 -40 -165 0 -165 0 -54 -107 -55 -108 0 168 -1
167 63 0 c45 0 70 -6 92 -20z m345 -260 l-60 -120 -215 0 -215 0 60 120 60
120 215 0 215 0 -60 -120z"/>
</g>
</svg>
