<?xml version="1.0" encoding="UTF-8" standalone="no"?>
<!-- Created with Inkscape (http://www.inkscape.org/) -->

<svg
   xmlns:dc="http://purl.org/dc/elements/1.1/"
   xmlns:cc="http://creativecommons.org/ns#"
   xmlns:rdf="http://www.w3.org/1999/02/22-rdf-syntax-ns#"
   xmlns:svg="http://www.w3.org/2000/svg"
   xmlns="http://www.w3.org/2000/svg"
   xmlns:sodipodi="http://sodipodi.sourceforge.net/DTD/sodipodi-0.dtd"
   xmlns:inkscape="http://www.inkscape.org/namespaces/inkscape"
   version="1.1"
   id="svg10"
   width="59.19075"
   height="64"
   viewBox="0 0 59.19075 64"
   sodipodi:docname="paste.svg"
   inkscape:version="0.92.4 (5da689c313, 2019-01-14)">
  <metadata
     id="metadata16">
    <rdf:RDF>
      <cc:Work
         rdf:about="">
        <dc:format>image/svg+xml</dc:format>
        <dc:type
           rdf:resource="http://purl.org/dc/dcmitype/StillImage" />
        <dc:title></dc:title>
      </cc:Work>
    </rdf:RDF>
  </metadata>
  <defs
     id="defs14" />
  <sodipodi:namedview
     pagecolor="#ffffff"
     bordercolor="#666666"
     borderopacity="1"
     objecttolerance="10"
     gridtolerance="10"
     guidetolerance="10"
     inkscape:pageopacity="0"
     inkscape:pageshadow="2"
     inkscape:window-width="1920"
     inkscape:window-height="1001"
     id="namedview12"
     showgrid="false"
     fit-margin-top="0"
     fit-margin-left="0"
     fit-margin-right="0"
     fit-margin-bottom="0"
     inkscape:zoom="15.538462"
     inkscape:cx="24.064356"
     inkscape:cy="25.806931"
     inkscape:window-x="-9"
     inkscape:window-y="-9"
     inkscape:window-maximized="1"
     inkscape:current-layer="svg10" />
  <path
     style="fill:#000000;stroke-width:1.23314071"
     d="m 25.223331,60.973201 c -2.879856,-2.879857 -3.026799,-3.750631 -3.026799,-17.936592 0,-14.185961 0.146943,-15.056735 3.026799,-17.936592 2.813703,-2.813701 3.90287,-3.026799 15.47031,-3.026799 11.56744,0 12.656608,0.213098 15.470311,3.026799 2.879856,2.879857 3.026799,3.750631 3.026799,17.936592 0,14.185961 -0.146943,15.056735 -3.026799,17.936592 C 53.350249,63.786902 52.261081,64 40.693641,64 29.126201,64 28.037034,63.786902 25.223331,60.973201 Z M 52.77842,57.587669 c 2.029308,-2.029308 2.029308,-27.072812 0,-29.10212 -1.998543,-1.998542 -22.171015,-1.998542 -24.169557,0 -2.029308,2.029308 -2.029308,27.072812 0,29.10212 0.92151,0.92151 5.480625,1.479768 12.084778,1.479768 6.604154,0 11.163269,-0.558258 12.084779,-1.479768 z M 32.061657,49.202312 c 0,-2.231397 0.822094,-2.466281 8.631984,-2.466281 7.809891,0 8.631985,0.234884 8.631985,2.466281 0,2.231398 -0.822094,2.466282 -8.631985,2.466282 -7.80989,0 -8.631984,-0.234884 -8.631984,-2.466282 z m 0,-9.865125 c 0,-2.231398 0.822094,-2.466281 8.631984,-2.466281 7.809891,0 8.631985,0.234883 8.631985,2.466281 0,2.231398 -0.822094,2.466281 -8.631985,2.466281 -7.80989,0 -8.631984,-0.234883 -8.631984,-2.466281 z M 2.4662813,56.601156 C 0.1934329,54.328309 0,52.490688 0,33.171484 0,13.85228 0.1934329,12.014659 2.4662813,9.7418118 3.822736,8.3853571 6.4638199,7.2755301 8.335356,7.2755301 c 2.067295,0 4.007287,-0.9679452 4.943012,-2.4662814 0.84712,-1.3564547 2.811818,-2.4662813 4.365993,-2.4662813 1.554175,0 3.49167,-0.6658962 4.305543,-1.47976915 1.15093,-1.150931 1.808606,-1.150931 2.959537,0 0.813873,0.81387295 2.751367,1.47976915 4.305543,1.47976915 1.554175,0 3.518873,1.1098266 4.365992,2.4662813 0.935726,1.4983361 2.875717,2.4662814 4.943012,2.4662814 4.239299,0 8.335357,3.9388349 8.335357,8.0154149 0,2.603296 -0.575466,3.082851 -3.699422,3.082851 -2.466282,0 -3.699422,-0.61657 -3.699422,-1.849711 0,-2.095402 -5.556135,-2.600505 -6.782274,-0.61657 -0.993525,1.607557 -17.503584,1.607557 -18.49711,0 -0.419167,-0.678227 -2.116656,-1.233141 -3.772198,-1.233141 H 7.3988439 v 18.49711 18.49711 h 5.4091731 c 5.067439,0 5.443473,0.233715 5.952131,3.699421 l 0.54296,3.699422 h -7.185273 c -5.5410853,0 -7.7496254,-0.564353 -9.6515537,-2.466281 z M 29.595376,9.7418118 c 0,-2.1374446 -0.822095,-2.4662817 -6.165704,-2.4662817 -5.343609,0 -6.165703,0.3288371 -6.165703,2.4662817 0,2.1374432 0.822094,2.4662812 6.165703,2.4662812 5.343609,0 6.165704,-0.328838 6.165704,-2.4662812 z"
     id="path20"
     inkscape:connector-curvature="0" />
</svg>
