<?xml version="1.0" encoding="UTF-8" standalone="no"?>
<svg
   xmlns:dc="http://purl.org/dc/elements/1.1/"
   xmlns:cc="http://creativecommons.org/ns#"
   xmlns:rdf="http://www.w3.org/1999/02/22-rdf-syntax-ns#"
   xmlns:svg="http://www.w3.org/2000/svg"
   xmlns="http://www.w3.org/2000/svg"
   xmlns:sodipodi="http://sodipodi.sourceforge.net/DTD/sodipodi-0.dtd"
   xmlns:inkscape="http://www.inkscape.org/namespaces/inkscape"
   version="1.0"
   width="63.842487pt"
   height="63.673954pt"
   viewBox="0 0 63.842488 63.673951"
   preserveAspectRatio="xMidYMid meet"
   id="svg8"
   sodipodi:docname="rotate.svg"
   inkscape:version="0.92.4 (5da689c313, 2019-01-14)">
  <defs
     id="defs12" />
  <sodipodi:namedview
     pagecolor="#ffffff"
     bordercolor="#666666"
     borderopacity="1"
     objecttolerance="10"
     gridtolerance="10"
     guidetolerance="10"
     inkscape:pageopacity="0"
     inkscape:pageshadow="2"
     inkscape:window-width="1920"
     inkscape:window-height="1001"
     id="namedview10"
     showgrid="false"
     fit-margin-top="0"
     fit-margin-left="0"
     fit-margin-right="0"
     fit-margin-bottom="0"
     inkscape:zoom="4.4500587"
     inkscape:cx="-6.7355691"
     inkscape:cy="75.088158"
     inkscape:window-x="-9"
     inkscape:window-y="-9"
     inkscape:window-maximized="1"
     inkscape:current-layer="svg8" />
  <metadata
     id="metadata2">
Created by potrace 1.15, written by Peter Selinger 2001-2017
<rdf:RDF>
  <cc:Work
     rdf:about="">
    <dc:format>image/svg+xml</dc:format>
    <dc:type
       rdf:resource="http://purl.org/dc/dcmitype/StillImage" />
    <dc:title></dc:title>
  </cc:Work>
</rdf:RDF>
</metadata>
  <g
     transform="matrix(0.04953278,0,0,-0.04949244,-23.830536,87.553077)"
     id="g6"
     style="fill:#000000;stroke:none">
    <path
       d="M 970,1754 C 791,1708 629,1578 552,1420 492,1298 477,1228 482,1100 488,977 511,900 572,796 691,594 933,467 1163,484 c 97,8 214,44 292,91 69,41 165,132 165,155 0,15 -118,140 -133,140 -4,0 -32,-24 -61,-54 -248,-247 -663,-110 -728,241 -33,178 73,373 247,454 146,69 330,50 443,-46 l 33,-28 -65,-66 c -72,-73 -81,-101 -42,-126 21,-14 55,-16 226,-13 186,3 203,4 216,22 11,16 14,63 14,223 0,190 -1,204 -20,223 -11,11 -27,20 -36,20 -9,0 -44,-27 -79,-61 l -64,-61 -64,46 c -123,88 -243,126 -392,125 -49,0 -115,-7 -145,-15 z"
       id="path4"
       inkscape:connector-curvature="0" />
  </g>
</svg>
