<?xml version="1.0" encoding="UTF-8" standalone="no"?>
<svg
   xmlns:dc="http://purl.org/dc/elements/1.1/"
   xmlns:cc="http://creativecommons.org/ns#"
   xmlns:rdf="http://www.w3.org/1999/02/22-rdf-syntax-ns#"
   xmlns:svg="http://www.w3.org/2000/svg"
   xmlns="http://www.w3.org/2000/svg"
   xmlns:sodipodi="http://sodipodi.sourceforge.net/DTD/sodipodi-0.dtd"
   xmlns:inkscape="http://www.inkscape.org/namespaces/inkscape"
   version="1.0"
   width="64pt"
   height="64pt"
   viewBox="0 0 64 64"
   preserveAspectRatio="xMidYMid meet"
   id="svg16"
   sodipodi:docname="save2.svg"
   inkscape:version="0.92.4 (5da689c313, 2019-01-14)">
  <defs
     id="defs20" />
  <sodipodi:namedview
     pagecolor="#ffffff"
     bordercolor="#666666"
     borderopacity="1"
     objecttolerance="10"
     gridtolerance="10"
     guidetolerance="10"
     inkscape:pageopacity="0"
     inkscape:pageshadow="2"
     inkscape:window-width="1920"
     inkscape:window-height="1001"
     id="namedview18"
     showgrid="false"
     fit-margin-top="0"
     fit-margin-left="0"
     fit-margin-right="0"
     fit-margin-bottom="0"
     inkscape:zoom="3.1466667"
     inkscape:cx="53.489489"
     inkscape:cy="75.674342"
     inkscape:window-x="-9"
     inkscape:window-y="-9"
     inkscape:window-maximized="1"
     inkscape:current-layer="svg16" />
  <metadata
     id="metadata2">
Created by potrace 1.15, written by Peter Selinger 2001-2017
<rdf:RDF>
  <cc:Work
     rdf:about="">
    <dc:format>image/svg+xml</dc:format>
    <dc:type
       rdf:resource="http://purl.org/dc/dcmitype/StillImage" />
    <dc:title></dc:title>
  </cc:Work>
</rdf:RDF>
</metadata>
  <g
     transform="matrix(0.02825617,0,0,-0.02825617,-0.14128085,63.999999)"
     id="g14"
     style="fill:#000000;stroke:none">
    <path
       d="M 81,2232 C 62,2223 37,2202 26,2187 5,2159 5,2155 5,1125 5,95 5,91 26,63 37,48 62,27 81,18 113,1 183,0 1120,0 c 937,0 1007,1 1039,18 19,9 44,30 55,45 21,28 21,37 23,865 l 3,837 -253,242 -252,243 H 925 c -751,0 -812,-1 -844,-18 z m 279,-572 v -470 h 645 645 v 470 470 h 23 c 17,0 84,-58 235,-201 l 212,-200 V 936 c 0,-603 -3,-795 -12,-804 -17,-17 -1959,-17 -1976,0 -17,17 -17,1969 0,1986 8,8 49,12 120,12 h 108 z m 1170,55 V 1300 H 1000 470 v 415 415 h 530 530 z"
       id="path4"
       inkscape:connector-curvature="0" />
    <path
       d="m 366,808 c -21,-30 -20,-54 4,-78 20,-20 33,-20 660,-20 636,0 640,0 661,21 15,15 19,28 14,47 -14,55 20,52 -676,52 H 381 Z"
       id="path6"
       inkscape:connector-curvature="0" />
    <path
       d="m 366,568 c -19,-27 -20,-47 -2,-70 12,-17 56,-18 664,-18 h 652 l 17,26 c 15,24 15,29 2,53 l -15,26 -651,3 -652,2 z"
       id="path8"
       inkscape:connector-curvature="0" />
    <path
       d="m 370,340 c -24,-24 -25,-48 -4,-78 l 15,-22 h 649 650 l 16,25 c 17,26 13,55 -12,80 -13,13 -99,15 -655,15 -626,0 -639,0 -659,-20 z"
       id="path10"
       inkscape:connector-curvature="0" />
    <path
       d="m 1300,1775 v -295 h 55 55 v 295 295 h -55 -55 z"
       id="path12"
       inkscape:connector-curvature="0" />
  </g>
</svg>
