<?xml version="1.0" standalone="no"?>
<svg xmlns="http://www.w3.org/2000/svg" viewBox="0 0 101.736 29" width="101.736" height="29"><g fill="#72edca" color="#72edca" transform="translate(0, 0) scale(0.659091)"><svg width="44.0" height="44.0" x="0.0" y="0.0" viewBox="0 0 44 44"><path fill="currentColor" fill-rule="evenodd" d="M44 14.667V44H14.667v-7.426c.605.056 1.213.094 1.832.094 11.122 0 20.168-9.047 20.168-20.168 0-.62-.037-1.227-.094-1.833H44zm-29.333 0h18.227c.065.603.106 1.213.106 1.834 0 9.112-7.387 16.498-16.5 16.498-.465 0-.925-.023-1.38-.063l-.453-.045V14.666h18.227zM16.5 0c7.06 0 13.067 4.441 15.422 10.676l.119.324H10.999v21.04C4.596 29.775 0 23.683 0 16.5 0 7.388 7.387 0 16.5 0z"></path></svg></g><line x1="41" y1="1" x2="41" y2="28" stroke="#0019ff" stroke-linecap="round"></line><path fill="#0019ff" fill-rule="nonzero" d="M5.18 19.44L0 19.44L0 0L4.46 0Q5.78 0 6.76 0.29Q7.73 0.58 8.38 1.18Q9.02 1.78 9.34 2.70Q9.65 3.62 9.65 4.87L9.65 4.87Q9.65 6.07 9.35 6.95Q9.05 7.82 8.44 8.33Q7.82 8.83 6.86 8.98L6.86 8.98Q8.04 9.24 8.76 9.88Q9.48 10.51 9.83 11.51Q10.18 12.50 10.18 13.90L10.18 13.90Q10.18 15.14 9.89 16.18Q9.60 17.21 8.99 17.93Q8.38 18.65 7.43 19.04Q6.48 19.44 5.18 19.44L5.18 19.44ZM2.71 10.18L2.71 17.50L4.54 17.50Q6.36 17.50 6.97 16.64Q7.58 15.79 7.58 13.90L7.58 13.90Q7.58 12.67 7.26 11.84Q6.94 11.02 6.23 10.60Q5.52 10.18 4.32 10.18L4.32 10.18L2.71 10.18ZM2.71 2.02L2.71 8.11L4.32 8.11Q5.47 8.11 6.12 7.79Q6.77 7.46 7.03 6.74Q7.30 6.02 7.30 4.87L7.30 4.87Q7.30 3.53 6.89 2.93Q6.48 2.33 5.62 2.17Q4.75 2.02 3.36 2.02L3.36 2.02L2.71 2.02ZM16.20 19.63L16.20 19.63Q14.57 19.63 13.68 19.00Q12.79 18.36 12.44 17.12Q12.10 15.89 12.10 14.09L12.10 14.09L12.10 10.92Q12.10 9.07 12.46 7.85Q12.82 6.62 13.72 6.00Q14.62 5.38 16.20 5.38L16.20 5.38Q17.95 5.38 18.78 6.10Q19.61 6.82 19.87 8.17Q20.14 9.53 20.14 11.42L20.14 11.42L20.14 12.55L14.66 12.55L14.66 15.34Q14.66 16.18 14.82 16.70Q14.98 17.23 15.32 17.48Q15.67 17.74 16.22 17.74L16.22 17.74Q16.80 17.74 17.10 17.46Q17.40 17.18 17.51 16.67Q17.62 16.15 17.62 15.46L17.62 15.46L17.62 14.62L20.11 14.62L20.11 15.14Q20.11 17.23 19.22 18.43Q18.34 19.63 16.20 19.63ZM14.66 10.42L14.66 11.16L17.62 11.16L17.62 9.91Q17.62 9.05 17.52 8.46Q17.42 7.87 17.12 7.57Q16.82 7.27 16.18 7.27L16.18 7.27Q15.55 7.27 15.23 7.56Q14.90 7.85 14.78 8.53Q14.66 9.22 14.66 10.42L14.66 10.42ZM24.98 19.44L22.68 19.44L22.68 0L24.53 0L30.05 12.91L30.05 0L32.30 0L32.30 19.44L30.58 19.44L24.98 6.17L24.98 19.44ZM38.98 19.63L38.98 19.63Q37.34 19.63 36.46 19.00Q35.57 18.36 35.22 17.12Q34.87 15.89 34.87 14.09L34.87 14.09L34.87 10.92Q34.87 9.07 35.23 7.85Q35.59 6.62 36.49 6.00Q37.39 5.38 38.98 5.38L38.98 5.38Q40.73 5.38 41.56 6.10Q42.38 6.82 42.65 8.17Q42.91 9.53 42.91 11.42L42.91 11.42L42.91 12.55L37.44 12.55L37.44 15.34Q37.44 16.18 37.60 16.70Q37.75 17.23 38.10 17.48Q38.45 17.74 39 17.74L39 17.74Q39.58 17.74 39.88 17.46Q40.18 17.18 40.28 16.67Q40.39 16.15 40.39 15.46L40.39 15.46L40.39 14.62L42.89 14.62L42.89 15.14Q42.89 17.23 42 18.43Q41.11 19.63 38.98 19.63ZM37.44 10.42L37.44 11.16L40.39 11.16L40.39 9.91Q40.39 9.05 40.30 8.46Q40.20 7.87 39.90 7.57Q39.60 7.27 38.95 7.27L38.95 7.27Q38.33 7.27 38.00 7.56Q37.68 7.85 37.56 8.53Q37.44 9.22 37.44 10.42L37.44 10.42ZM48.94 19.63L48.94 19.63Q47.86 19.63 47.20 19.22Q46.54 18.82 46.24 18.07Q45.94 17.33 45.94 16.32L45.94 16.32L45.94 7.27L44.47 7.27L44.47 5.57L45.94 5.57L45.94 1.51L48.50 1.51L48.50 5.57L50.74 5.57L50.74 7.27L48.50 7.27L48.50 16.15Q48.50 16.97 48.77 17.32Q49.03 17.66 49.78 17.66L49.78 17.66Q49.97 17.66 50.22 17.64Q50.47 17.62 50.71 17.59L50.71 17.59L50.71 19.49Q50.23 19.56 49.82 19.60Q49.42 19.63 48.94 19.63Z" transform="translate(51, 4.78)"></path></svg>