<?xml version="1.0" standalone="no"?>
<!DOCTYPE svg PUBLIC "-//W3C//DTD SVG 20010904//EN"
 "http://www.w3.org/TR/2001/REC-SVG-20010904/DTD/svg10.dtd">
<svg version="1.0" xmlns="http://www.w3.org/2000/svg"
 width="64.000000pt" height="64.000000pt" viewBox="0 0 64.000000 64.000000"
 preserveAspectRatio="xMidYMid meet">
<metadata>
Created by potrace 1.15, written by Peter Selinger 2001-2017
</metadata>
<g transform="translate(0.000000,64.000000) scale(0.100000,-0.100000)"
fill="#000000" stroke="none">
<path d="M40 320 l0 -200 100 0 c93 0 100 1 100 20 0 18 -7 20 -80 20 l-80 0
0 160 0 160 220 0 220 0 0 -160 0 -160 -80 0 c-73 0 -80 -2 -80 -20 0 -19 7
-20 100 -20 l100 0 0 200 0 200 -260 0 -260 0 0 -200z"/>
<path d="M247 342 c-37 -37 -45 -50 -35 -60 9 -9 18 -6 40 15 l28 27 0 -102
c0 -95 1 -102 20 -102 19 0 20 7 20 102 l0 102 28 -27 c22 -21 31 -24 40 -15
10 10 2 23 -35 60 -26 26 -50 48 -53 48 -3 0 -27 -22 -53 -48z"/>
</g>
</svg>
