<?xml version="1.0" encoding="UTF-8" standalone="no"?>
<!-- Created with Inkscape (http://www.inkscape.org/) -->

<svg
   xmlns:dc="http://purl.org/dc/elements/1.1/"
   xmlns:cc="http://creativecommons.org/ns#"
   xmlns:rdf="http://www.w3.org/1999/02/22-rdf-syntax-ns#"
   xmlns:svg="http://www.w3.org/2000/svg"
   xmlns="http://www.w3.org/2000/svg"
   xmlns:sodipodi="http://sodipodi.sourceforge.net/DTD/sodipodi-0.dtd"
   xmlns:inkscape="http://www.inkscape.org/namespaces/inkscape"
   version="1.1"
   id="svg10"
   width="52.672569"
   height="64.000023"
   viewBox="0 0 52.672569 64.000023"
   sodipodi:docname="copy.svg"
   inkscape:version="0.92.4 (5da689c313, 2019-01-14)">
  <metadata
     id="metadata16">
    <rdf:RDF>
      <cc:Work
         rdf:about="">
        <dc:format>image/svg+xml</dc:format>
        <dc:type
           rdf:resource="http://purl.org/dc/dcmitype/StillImage" />
        <dc:title></dc:title>
      </cc:Work>
    </rdf:RDF>
  </metadata>
  <defs
     id="defs14" />
  <sodipodi:namedview
     pagecolor="#ffffff"
     bordercolor="#666666"
     borderopacity="1"
     objecttolerance="10"
     gridtolerance="10"
     guidetolerance="10"
     inkscape:pageopacity="0"
     inkscape:pageshadow="2"
     inkscape:window-width="1920"
     inkscape:window-height="1001"
     id="namedview12"
     showgrid="false"
     fit-margin-top="0"
     fit-margin-left="0"
     fit-margin-right="0"
     fit-margin-bottom="0"
     inkscape:zoom="0.7890625"
     inkscape:cx="-100.55219"
     inkscape:cy="210.25146"
     inkscape:window-x="-9"
     inkscape:window-y="-9"
     inkscape:window-maximized="1"
     inkscape:current-layer="svg10" />
  <path
     style="fill:#000000;stroke-width:0.12506902"
     d="m 6.7097375,63.841772 c -0.44712,-0.0965 -1.34762,-0.4383 -2.00111,-0.75943 -0.9801,-0.48164 -1.36696,-0.76413 -2.20932,-1.6133 -0.84173,-0.84853 -1.11982,-1.23555 -1.58257,-2.20247 -0.30877,-0.64518 -0.63718,-1.48259 -0.7298,-1.86093 -0.24925,-1.01817 -0.24925,-40.62981 0,-41.64798 0.0926,-0.37833 0.42249,-1.21875 0.73304,-1.86759 0.98307,-2.05394 2.89598,-3.66879 5.28948,-4.4653195 0.64296,-0.21397 1.43384,-0.23139 12.1115605,-0.26671 12.47857,-0.0413 11.98912,-0.0657 13.70691,0.68381 0.68466,0.2987295 1.29827,0.8681795 6.28771,5.8351795 5.90845,5.88186 5.98155,5.96869 6.52793,7.75428 0.25928,0.84733 0.26236,1.01056 0.26236,13.91393 0,11.64825 0.0207,13.05654 0.19176,13.05654 0.3614,0 1.3716,-0.59928 1.88328,-1.11721 0.65957,-0.66762 1.03759,-1.43554 1.18862,-2.41457 0.0749,-0.48579 0.10749,-8.07191 0.0857,-19.9812 -0.0326,-17.8280695 -0.0504,-19.2364595 -0.25053,-19.7357195 -0.3303,-0.82415 -0.94741,-1.60356 -1.64961,-2.08346 -1.2506,-0.8547 -0.48256,-0.81831 -17.27048,-0.81831 -13.24707,0 -15.23668,0.0242 -15.88876,0.1931 -0.84234,0.2182 -1.5691,0.6542 -2.11123,1.26653 l -0.36865,0.4164 h -2.3477505 -2.34775 l 0.18,-0.51019 c 0.39723,-1.12586 1.01842,-2.0788 1.99855,-3.06592 0.8238,-0.82967 1.21883,-1.11726 2.1904905,-1.59475001 2.055319,-1.01002 1.031059,-0.95779 18.73454,-0.95535 17.669,0.002 16.622369,-0.051 18.65566,0.95271 0.96559,0.47666001 1.37472,0.77446001 2.20608,1.60583001 0.84768,0.84767 1.11633,1.22057 1.585289,2.20036 0.31055,0.64884 0.64042,1.48926 0.73304,1.86759 0.13761,0.56214 0.16839,4.3800295 0.16839,20.8865295 v 20.19864 l -0.29289,0.93802 c -0.48908,1.56631 -1.09607,2.58267 -2.21385,3.70691 -0.83647,0.84131 -1.21676,1.11715 -2.19179,1.58979 -0.65726,0.3186 -1.55358,0.64202 -2.02393,0.73029 l -0.84421,0.15844 v 0.82695 c 0,1.07243 -0.38281,2.56644 -0.95813,3.73934 -0.345,0.70335 -0.72312,1.19979 -1.53219,2.01165 -1.18217,1.18624 -1.94325,1.67248 -3.45046,2.20445 l -1.00055,0.35314 -15.32096,0.0228 c -12.74542,0.019 -15.4576095,-0.007 -16.1338995,-0.15277 z m 31.5419705,-4.45631 c 0.90885,-0.42601 1.77936,-1.29653 2.20538,-2.20538 l 0.33396,-0.71245 0.0336,-15.79381 c 0.0232,-10.89034 -0.007,-15.87028 -0.0982,-16.04011 -0.12545,-0.23441 -0.27529,-0.24629 -3.10636,-0.24629 -2.35584,0 -3.11586,-0.0415 -3.65387,-0.19953 -1.77998,-0.52283 -3.15983,-1.70251 -3.96587,-3.39058 l -0.46552,-0.97491 -0.0625,-3.18926 -0.0625,-3.18926 -10.5625,-0.032 c -11.7534205,-0.0356 -11.4849005,-0.0524 -12.7225905,0.79488 -0.69561,0.47617 -1.41412,1.4304 -1.68571,2.23876 -0.24925,0.74187 -0.24925,39.53036 0,40.27222 0.2716,0.80836 0.9901,1.7626 1.68571,2.23876 1.24523,0.85238 0.44454,0.81467 16.7189605,0.78746 l 14.69561,-0.0246 z m -27.70447,-7.65981 c -0.7121805,-0.19367 -1.5143005,-0.91449 -1.7237005,-1.54897 -0.37229,-1.12803 0.15877,-2.51562 1.1694,-3.05549 l 0.5314005,-0.28388 11.63142,-0.0389 c 8.48929,-0.0284 11.81307,3.7e-4 12.30383,0.1063 0.5197,0.11221 0.79267,0.26544 1.20197,0.67474 1.20174,1.20173 0.95639,3.03775 -0.52205,3.90678 l -0.60191,0.3538 -11.69396,0.0247 c -9.31204,0.0197 -11.81666,-0.009 -12.2964,-0.13913 z m -0.33468,-11.02835 c -2.0228005,-0.8772 -2.0052505,-3.76038 0.0281,-4.60996 0.40726,-0.17016 1.89672,-0.19324 12.31759,-0.19082 11.19575,0.003 11.88216,0.0154 12.35566,0.2305 1.64752,0.74846 2.02058,2.81712 0.72924,4.04373 -0.8011,0.76094 -0.16863,0.72624 -13.1394,0.72089 -10.30525,-0.004 -11.91139,-0.0297 -12.29116,-0.19434 z m 0.40378,-10.80422 c -2.1506205,-0.5101 -2.6044505,-3.39873 -0.7176105,-4.56764 l 0.6056505,-0.37521 6.82624,-0.0402 c 4.64226,-0.0273 7.02859,0.004 7.45868,0.0974 1.16334,0.25303 2.05106,1.3109 2.05106,2.44421 0,1.08259 -0.85734,2.15493 -1.94102,2.4278 -0.62715,0.15792 -13.62241,0.17036 -14.283,0.0137 z"
     id="path20"
     inkscape:connector-curvature="0" />
</svg>
