<?xml version="1.0" encoding="UTF-8" standalone="no"?>
<svg
   xmlns:dc="http://purl.org/dc/elements/1.1/"
   xmlns:cc="http://creativecommons.org/ns#"
   xmlns:rdf="http://www.w3.org/1999/02/22-rdf-syntax-ns#"
   xmlns:svg="http://www.w3.org/2000/svg"
   xmlns="http://www.w3.org/2000/svg"
   xmlns:sodipodi="http://sodipodi.sourceforge.net/DTD/sodipodi-0.dtd"
   xmlns:inkscape="http://www.inkscape.org/namespaces/inkscape"
   version="1.0"
   width="48.000004pt"
   height="43.019096pt"
   viewBox="0 0 48.000004 43.019096"
   preserveAspectRatio="xMidYMid meet"
   id="svg12"
   sodipodi:docname="icons8-cut-100.svg"
   inkscape:version="0.92.4 (5da689c313, 2019-01-14)">
  <defs
     id="defs16" />
  <sodipodi:namedview
     pagecolor="#ffffff"
     bordercolor="#666666"
     borderopacity="1"
     objecttolerance="10"
     gridtolerance="10"
     guidetolerance="10"
     inkscape:pageopacity="0"
     inkscape:pageshadow="2"
     inkscape:window-width="1920"
     inkscape:window-height="1001"
     id="namedview14"
     showgrid="false"
     fit-margin-top="0"
     fit-margin-left="0"
     fit-margin-right="0"
     fit-margin-bottom="0"
     inkscape:zoom="1.77"
     inkscape:cx="66.830474"
     inkscape:cy="58.507521"
     inkscape:window-x="-9"
     inkscape:window-y="-9"
     inkscape:window-maximized="1"
     inkscape:current-layer="svg12" />
  <metadata
     id="metadata2">
Created by potrace 1.15, written by Peter Selinger 2001-2017
<rdf:RDF>
  <cc:Work
     rdf:about="">
    <dc:format>image/svg+xml</dc:format>
    <dc:type
       rdf:resource="http://purl.org/dc/dcmitype/StillImage" />
    <dc:title></dc:title>
  </cc:Work>
</rdf:RDF>
</metadata>
  <g
     transform="matrix(0.04793993,0,0,-0.04793993,0.05889701,45.952712)"
     id="g10"
     style="fill:#000000;stroke:none">
    <path
       d="M 63,941 C -30,883 -20,727 80,678 99,668 146,646 183,629 247,600 330,533 330,510 330,487 247,420 183,391 61,335 46,325 23,291 -7,247 -8,169 20,123 49,75 91,57 166,62 c 68,4 101,25 130,80 18,34 18,105 0,138 -14,24 -12,25 66,72 43,26 82,48 85,48 3,0 81,-53 172,-118 91,-65 179,-123 194,-130 39,-17 122,-15 157,3 59,31 45,48 -170,205 -110,80 -199,147 -199,150 0,3 89,70 199,150 215,157 229,174 170,205 -35,18 -118,20 -157,3 C 798,861 710,803 619,738 528,673 450,620 447,620 c -3,0 -42,22 -85,48 -78,47 -80,48 -66,72 18,33 18,104 0,138 -30,57 -62,76 -134,80 -54,2 -73,-1 -99,-17 z m 148,-41 c 23,-13 49,-61 49,-91 0,-12 -9,-37 -21,-55 -11,-19 -18,-42 -15,-52 3,-10 44,-40 90,-67 73,-43 83,-52 71,-64 -12,-12 -21,-8 -61,28 -27,26 -88,63 -149,92 -57,26 -109,57 -114,68 -19,35 -13,87 15,120 22,26 33,31 71,31 24,0 53,-5 64,-10 z M 920,817 C 867,768 398,433 323,389 c -51,-29 -96,-61 -99,-71 -3,-10 4,-33 15,-52 25,-40 26,-67 6,-106 -20,-38 -43,-50 -98,-50 -38,0 -49,5 -71,31 -28,33 -34,85 -16,120 6,10 61,43 124,73 90,44 122,65 159,106 26,29 47,56 47,60 0,11 409,306 441,319 13,5 42,10 64,10 33,1 37,-1 25,-12 z M 747,333 C 922,203 931,195 901,192 849,187 819,203 655,321 506,428 500,434 516,451 c 10,11 23,19 31,19 7,0 97,-62 200,-137 z"
       id="path4"
       inkscape:connector-curvature="0" />
    <path
       d="M 95,865 C 42,813 82,730 159,730 c 48,0 71,26 71,81 0,71 -85,105 -135,54 z"
       id="path6"
       inkscape:connector-curvature="0" />
    <path
       d="m 95,264 c -32,-35 -32,-78 0,-109 30,-31 73,-32 109,-4 21,16 26,29 26,63 0,53 -22,76 -74,76 -27,0 -43,-7 -61,-26 z"
       id="path8"
       inkscape:connector-curvature="0" />
  </g>
</svg>
